<?xml version="1.0" encoding="utf-8"?>
<!-- Generator: Adobe Illustrator 25.4.1, SVG Export Plug-In . SVG Version: 6.00 Build 0)  -->
<svg version="1.1" id="Layer_1" xmlns="http://www.w3.org/2000/svg" xmlns:xlink="http://www.w3.org/1999/xlink" x="0px" y="0px"
	 viewBox="0 0 21 21" style="enable-background:new 0 0 21 21;" xml:space="preserve">
<path d="M9.7,20.5c-0.2,0-0.5,0-0.8-0.1s-0.5-0.2-0.7-0.5L1,12.8c-0.2-0.2-0.3-0.4-0.4-0.7c-0.1-0.3-0.1-0.5-0.1-0.8s0-0.5,0.1-0.8
	S0.8,10,1,9.8L9.8,1c0.2-0.2,0.4-0.3,0.7-0.4c0.3,0,0.5-0.1,0.8-0.1h7.2c0.5,0,1,0.2,1.4,0.6s0.6,0.8,0.6,1.4v7.2
	c0,0.3,0,0.5-0.1,0.8c-0.1,0.2-0.2,0.5-0.4,0.6l-8.8,8.8c-0.2,0.2-0.4,0.4-0.7,0.5S9.9,20.5,9.7,20.5z M9.7,18.5l8.8-8.8V2.5h-7.2
	l-8.8,8.8L9.7,18.5z M16,6.5c0.4,0,0.8-0.1,1.1-0.4c0.2-0.3,0.4-0.7,0.4-1.1s-0.1-0.8-0.4-1.1c-0.4-0.3-0.7-0.4-1.1-0.4
	s-0.8,0.1-1.1,0.4c-0.3,0.3-0.4,0.7-0.4,1.1s0.1,0.8,0.4,1.1C15.2,6.4,15.6,6.5,16,6.5z"/>
</svg>
