<?xml version="1.0" encoding="utf-8"?>
<!-- Generator: Adobe Illustrator 25.4.1, SVG Export Plug-In . SVG Version: 6.00 Build 0)  -->
<svg version="1.1" id="Layer_1" xmlns="http://www.w3.org/2000/svg" xmlns:xlink="http://www.w3.org/1999/xlink" x="0px" y="0px"
	 viewBox="0 0 50 50" style="enable-background:new 0 0 50 50;" xml:space="preserve">
<style type="text/css">
	.st0{fill:#FCFCFC;}
	.st1{fill:#CCC8F1;}
</style>
<g>
	<path class="st0" d="M25,0C11.2,0,0,11.2,0,25c0,0.9,0.1,1.8,0.2,2.7c0,0.3,0.1,0.6,0.1,0.9c0.1,0.6,0.2,1.2,0.3,1.8
		c0.1,0.3,0.2,0.7,0.3,1c0.1,0.5,0.3,1,0.4,1.5c0.1,0.3,0.2,0.7,0.4,1c0.2,0.5,0.4,0.9,0.6,1.4c0.1,0.3,0.3,0.7,0.5,1
		c0.2,0.4,0.5,0.9,0.7,1.3c0.2,0.3,0.4,0.6,0.6,0.9c0.3,0.4,0.6,0.8,0.9,1.2C5,40,5.2,40.3,5.5,40.6c0.3,0.4,0.7,0.8,1,1.2
		c0.2,0.2,0.4,0.5,0.7,0.7c0.4,0.4,0.8,0.8,1.3,1.2c0.2,0.2,0.3,0.3,0.5,0.5l0,0C13.4,47.9,19.1,50,25,50c5.9,0,11.6-2.1,16.1-5.9
		c0,0,0,0,0,0c0.2-0.1,0.3-0.3,0.5-0.5c0.4-0.4,0.9-0.8,1.3-1.2c0.2-0.2,0.4-0.5,0.7-0.7c0.4-0.4,0.7-0.8,1-1.2
		c0.2-0.3,0.4-0.6,0.6-0.8c0.3-0.4,0.6-0.8,0.9-1.2c0.7-1,1.2-2.1,1.7-3.2c0.2-0.5,0.4-0.9,0.6-1.4c0.1-0.3,0.3-0.7,0.4-1
		c0.2-0.5,0.3-1,0.4-1.5c0.1-0.3,0.2-0.7,0.3-1c0.1-0.6,0.2-1.2,0.3-1.8c0-0.3,0.1-0.6,0.1-0.9c0.1-0.9,0.2-1.8,0.2-2.7
		C50,11.2,38.8,0,25,0"/>
	<path class="st1" d="M25,48.1c-5.9,0-11.3-2.3-15.4-5.9c2.3-5.4,7.5-8.3,15.4-8.3c7.9,0,13.1,3,15.4,8.4C36.3,46,30.9,48.1,25,48.1
		"/>
	<path class="st1" d="M25.3,12.8c4.9,0,8.6,3.8,8.6,8.9c0,5.2-3.9,9.5-8.6,9.5s-8.6-4.2-8.6-9.5C16.7,16.6,20.4,12.8,25.3,12.8"/>
</g>
</svg>
