<?xml version="1.0" encoding="utf-8"?>
<!-- Generator: Adobe Illustrator 25.4.1, SVG Export Plug-In . SVG Version: 6.00 Build 0)  -->
<svg version="1.1" id="Layer_1" xmlns="http://www.w3.org/2000/svg" xmlns:xlink="http://www.w3.org/1999/xlink" x="0px" y="0px"
	 viewBox="0 0 24 24" style="enable-background:new 0 0 24 24;" xml:space="preserve">
<path d="M4,22V11H2V5h5.2C7.1,4.8,7.1,4.7,7,4.5C7,4.4,7,4.2,7,4c0-0.8,0.3-1.5,0.9-2.1S9.2,1,10,1c0.4,0,0.7,0.1,1.1,0.2
	c0.3,0.1,0.6,0.3,0.9,0.6c0.3-0.3,0.6-0.5,0.9-0.6C13.3,1.1,13.6,1,14,1c0.8,0,1.5,0.3,2.1,0.9C16.7,2.5,17,3.2,17,4
	c0,0.2,0,0.4,0,0.5S16.9,4.8,16.8,5H22v6h-2v11H4z M14,3c-0.3,0-0.5,0.1-0.7,0.3C13.1,3.5,13,3.7,13,4s0.1,0.5,0.3,0.7
	C13.5,4.9,13.7,5,14,5s0.5-0.1,0.7-0.3C14.9,4.5,15,4.3,15,4s-0.1-0.5-0.3-0.7C14.5,3.1,14.3,3,14,3z M9,4c0,0.3,0.1,0.5,0.3,0.7
	C9.5,4.9,9.7,5,10,5s0.5-0.1,0.7-0.3C10.9,4.5,11,4.3,11,4s-0.1-0.5-0.3-0.7C10.5,3.1,10.3,3,10,3S9.5,3.1,9.3,3.3
	C9.1,3.5,9,3.7,9,4z M4,7v2h7V7H4z M11,20v-9H6v9H11z M13,20h5v-9h-5V20z M20,9V7h-7v2H20z"/>
</svg>
