<?xml version="1.0" encoding="utf-8"?>
<!-- Generator: Adobe Illustrator 25.4.1, SVG Export Plug-In . SVG Version: 6.00 Build 0)  -->
<svg version="1.1" id="Layer_1" xmlns="http://www.w3.org/2000/svg" xmlns:xlink="http://www.w3.org/1999/xlink" x="0px" y="0px"
	 viewBox="0 0 50 50" style="enable-background:new 0 0 50 50;" xml:space="preserve">
<style type="text/css">
	.st0{fill:#FFFFFF;}
</style>
<path class="st0" d="M16,46.8c-1.1,0-2.1-0.4-3-1.2c-0.9-0.9-1.4-2-1.4-3c0-1.1,0.4-2.1,1.4-3c0.9-0.9,1.9-1.2,3-1.2s2.1,0.5,3,1.2
	c0.9,0.9,1.3,1.6,1.3,3c0,1.2-0.4,2.1-1.3,3C18,46.5,17.1,46.8,16,46.8z M37.5,46.8c-1,0-2.1-0.4-3-1.2c-0.9-0.9-1.3-2-1.3-3
	c0-1.1,0.5-2.1,1.3-3c0.9-0.9,2-1.2,3-1.2c1.4,0,2.1,0.5,3,1.2c0.9,0.9,1.4,1.6,1.4,3c0,1.2-0.5,2.1-1.4,3
	C39.7,46.5,38.8,46.8,37.5,46.8z M2.9,8.8V4.6h7.2l9.3,19h15.1L43,8.8h5l-9.5,16.9c-0.4,0.6-0.9,1.2-1.5,1.7
	c-0.6,0.4-1.3,0.6-2.1,0.6H18.3l-2.4,4.1h26v4.2H16c-1.8,0-2.8-0.6-3.8-2.1c-0.9-1.2-0.9-2.7,0-4.2l2.8-5.1L7.2,8.8H2.9z M25.9,1.8
	h3.3v15.5h1.1v1h-4.9v-1h1V5.7h-0.9h-1V4.3L25.9,1.8z"/>
</svg>
