<?xml version="1.0" encoding="utf-8"?>
<!-- Generator: Adobe Illustrator 25.4.1, SVG Export Plug-In . SVG Version: 6.00 Build 0)  -->
<svg version="1.1" id="Layer_1" xmlns="http://www.w3.org/2000/svg" xmlns:xlink="http://www.w3.org/1999/xlink" x="0px" y="0px"
	 viewBox="0 0 16 16" style="enable-background:new 0 0 16 16;" xml:space="preserve">
<path d="M2.1,13.9h11.8V6L10,2.1H2.1V13.9z M2.1,15.5c-0.4,0-0.9-0.1-1.2-0.4c-0.3-0.3-0.4-0.8-0.4-1.2V2.1c0-0.4,0.1-0.9,0.4-1.2
	s0.7-0.4,1.2-0.4h8.6l4.8,4.8v8.6c0,0.4-0.1,0.9-0.4,1.2c-0.3,0.3-0.6,0.4-1.2,0.4H2.1z M3.7,12.3h8.6v-1.6H3.7V12.3z M3.7,9.1h8.6
	V7.5H3.7V9.1z M3.7,5.9h6.4V4.2H3.7V5.9z M2.1,13.9V2.1V13.9z"/>
</svg>
