<?xml version="1.0" encoding="utf-8"?>
<!-- Generator: Adobe Illustrator 25.4.1, SVG Export Plug-In . SVG Version: 6.00 Build 0)  -->
<svg version="1.1" id="Layer_1" xmlns="http://www.w3.org/2000/svg" xmlns:xlink="http://www.w3.org/1999/xlink" x="0px" y="0px"
	 viewBox="0 0 25 25" style="enable-background:new 0 0 25 25;" xml:space="preserve">
<style type="text/css">
	.st0{fill:#FFFFFF;}
</style>
<path class="st0" d="M5.1,18.6c1-0.8,2.2-1.4,3.4-1.9c1.2-0.5,2.6-0.7,3.9-0.7s2.7,0.2,3.9,0.7c1.2,0.5,2.4,1.1,3.4,1.9
	c0.7-0.8,1.2-1.8,1.7-2.8c0.4-1,0.6-2.1,0.6-3.3c0-2.7-1-4.9-2.8-6.8c-1.9-1.9-4.1-2.9-6.8-2.9s-4.9,1-6.8,2.8s-2.8,4.1-2.8,6.8
	c0,1.2,0.2,2.3,0.6,3.3S4.4,17.8,5.1,18.6z M12.5,13.7c-1.2,0-2.2-0.4-3-1.2c-0.8-0.8-1.2-1.8-1.2-3s0.4-2.2,1.2-3
	c0.8-0.8,1.8-1.2,3-1.2s2.2,0.4,3,1.2s1.2,1.8,1.2,3s-0.4,2.2-1.2,3C14.7,13.3,13.7,13.7,12.5,13.7z M12.5,24.5
	c-1.7,0-3.2-0.3-4.7-1C6.4,22.9,5.1,22,4,21c-1.1-1.1-1.9-2.3-2.6-3.8s-1-3-1-4.7s0.3-3.2,1-4.7S3,5.1,4,4s2.3-1.9,3.8-2.6
	s3-1,4.7-1s3.2,0.3,4.7,1S19.9,3,21,4c1.1,1.1,1.9,2.3,2.6,3.8c0.6,1.4,1,3,1,4.7s-0.3,3.2-1,4.7C22.9,18.6,22,19.9,21,21
	c-1.1,1.1-2.3,1.9-3.8,2.6C15.7,24.2,14.2,24.5,12.5,24.5z M12.5,22.1c1.1,0,2.1-0.2,3-0.5c0.9-0.3,1.8-0.7,2.6-1.3
	c-0.8-0.6-1.7-1-2.6-1.3c-0.9-0.3-1.9-0.5-3-0.5s-2.1,0.2-3,0.5c-0.9,0.3-1.8,0.7-2.6,1.3c0.8,0.6,1.7,1,2.6,1.3
	C10.4,21.9,11.4,22.1,12.5,22.1z M12.5,11.3c0.5,0,1-0.2,1.3-0.5c0.3-0.3,0.5-0.7,0.5-1.3c0-0.5-0.2-1-0.5-1.3
	c-0.3-0.3-0.7-0.5-1.3-0.5s-1,0.2-1.3,0.5c-0.3,0.3-0.5,0.7-0.5,1.3c0,0.5,0.2,1,0.5,1.3C11.5,11.1,12,11.3,12.5,11.3z"/>
</svg>
