<?xml version="1.0" encoding="utf-8"?>
<!-- Generator: Adobe Illustrator 25.4.1, SVG Export Plug-In . SVG Version: 6.00 Build 0)  -->
<svg version="1.1" id="Layer_1" xmlns="http://www.w3.org/2000/svg" xmlns:xlink="http://www.w3.org/1999/xlink" x="0px" y="0px"
	 viewBox="0 0 20 20" style="enable-background:new 0 0 20 20;" xml:space="preserve">
<style type="text/css">
	.st0{fill:#5F6368;}
</style>
<path class="st0" d="M5.6,17.5c-0.5,0-1-0.2-1.3-0.5c-0.4-0.3-0.6-0.7-0.6-1.1V5.2H2.5V3.6h5V2.5h5v1.1h5v1.6h-1.2v10.7
	c0,0.5-0.2,0.8-0.6,1.1s-0.8,0.5-1.3,0.5H5.6z M14.4,5.2H5.6v10.7h8.8V5.2z M7.5,14.3h1.9V6.8H7.5V14.3z M10.6,14.3h1.9V6.8h-1.9
	V14.3z M5.6,5.2v10.7V5.2z"/>
</svg>
