<?xml version="1.0" encoding="utf-8"?>
<!-- Generator: Adobe Illustrator 25.4.1, SVG Export Plug-In . SVG Version: 6.00 Build 0)  -->
<svg version="1.1" id="Layer_1" xmlns="http://www.w3.org/2000/svg" xmlns:xlink="http://www.w3.org/1999/xlink" x="0px" y="0px"
	 viewBox="0 0 25 25" style="enable-background:new 0 0 25 25;" xml:space="preserve">
<style type="text/css">
	.st0{fill:#1877F2;}
	.st1{fill:#FFFFFF;}
</style>
<path class="st0" d="M24.5,12.5c0-6.6-5.4-12-12-12s-12,5.4-12,12c0,6,4.4,11,10.1,11.9V16h-3v-3.5h3V9.9c0-3,1.8-4.7,4.5-4.7
	c1.3,0,2.7,0.2,2.7,0.2v3h-1.5c-1.5,0-2,0.9-2,1.9v2.3h3.3L17.2,16h-2.8v8.4C20.1,23.5,24.5,18.5,24.5,12.5"/>
<path class="st1" d="M17.2,16l0.5-3.5h-3.3v-2.3c0-0.9,0.5-1.9,2-1.9h1.5v-3c0,0-1.4-0.2-2.7-0.2c-2.7,0-4.5,1.7-4.5,4.7v2.6h-3V16
	h3v8.4c0.6,0.1,1.2,0.1,1.9,0.1s1.3,0,1.9-0.1V16H17.2"/>
</svg>
