<?xml version="1.0" encoding="utf-8"?>
<!-- Generator: Adobe Illustrator 25.4.1, SVG Export Plug-In . SVG Version: 6.00 Build 0)  -->
<svg version="1.1" id="Layer_1" xmlns="http://www.w3.org/2000/svg" xmlns:xlink="http://www.w3.org/1999/xlink" x="0px" y="0px"
	 viewBox="0 0 5000 2464.9" style="enable-background:new 0 0 5000 2464.9;" xml:space="preserve">
<style type="text/css">
	.st0{fill:#010101;}
	.st1{fill:#020202;}
	.st2{fill:#020101;}
	.st3{fill:#030303;}
	.st4{fill:#FEFFFF;}
	.st5{fill:#FEFEFE;}
</style>
<g>
	<path class="st0" d="M4386.3,930v-95.6h400.2c-3.5-13.9-9.1-25.9-15.3-37.5c-24.1-45.5-59.2-80.8-102.2-108.3
		c-21.7-13.8-46.2-21.9-70.9-28.5c-19.3-5.1-38.9-8.1-58.9-9c-45.8-2.1-89.2,6.6-130,27.2c-32.4,16.4-60.3,38.9-83.9,66.4
		c-11,12.8-21.1,26.5-31.4,40c-2.8,3.6-5,7.8-6.7,12.1c-7.5,19.1-15.7,38.1-21.8,57.7c-9,28.8-10.8,58.8-9.1,88.7
		c3.7,62.9,28.5,117.9,68.6,165.4c34,40.4,78.4,66,128.8,81.3c25.6,7.8,51.9,11.6,78.6,11.2c51.6-0.9,99.7-14.7,143-42.9
		c16.9-11,32.7-23.7,50.2-36.5l127.5,129.9c-5,4.7-9.3,9.2-14,13.3c-47.7,42.4-100.9,75.7-161.6,96.3
		c-31.8,10.8-64.6,17.7-98.2,20.9c-30.3,2.9-60.5,3-90.7,0.9c-50.7-3.6-99.5-15.8-145.9-36.8c-52.4-23.7-98.3-56.6-139-97.2
		c-60.5-60.2-99.4-132.5-120.9-214.5c-6.2-23.7-10.4-48-11.2-72.6c-0.7-20.3-2.1-40.6-1.1-60.8c1.9-38.5,8.4-76.3,20-113.2
		c20.4-64.5,54.9-120.6,99.5-171c34.8-39.3,75.6-70.7,121.8-95.5c54.9-29.6,113.2-46.8,175.3-52.2c64.7-5.7,128,0.2,189.7,20.9
		c52.2,17.6,99.1,44.6,141.7,79.5c21.9,17.9,42.7,37,61.2,58.5c18.7,21.7,34.1,45.8,48.4,70.5c27.5,47.6,46.1,98.6,55,152.8
		c3.1,18.6,3.8,37.6,5,56.5c2.1,32.5-1.5,64.7-6.4,96.8c-0.6,3.9-1.5,7.8-2.3,12h-593.2V930z"/>
	<path class="st0" d="M733.9,1303.9c-55.9,39.2-116.9,64.4-183.6,74.8c-20.3,3.2-40.9,4.5-61.5,5.2c-27.2,0.8-54.4,0.2-81.6-3.5
		c-41.4-5.7-81.2-16.7-119.4-33.7c-49.7-22.1-93.4-52.9-132.8-90.4c-69.3-66.1-111.7-147-132.3-239.7c-3.9-17.4-5.7-35.4-6.8-53.2
		c-1.4-21.5-2.4-43.2-1.3-64.7c2.4-45.6,11.2-90.1,27.5-132.9c20.4-53.4,50.4-100.6,87.7-143.9c39.7-46.1,87.2-81.8,141.4-108.5
		c50.2-24.8,103.3-39.4,159.2-44.3c26.9-2.3,53.9-2.9,80.7-0.9c54.8,4,107.3,17.2,157,41.2c43.8,21.1,82.7,48.9,118.8,81.4
		c39.2,35.2,69,77.2,93.4,123.4c19.2,36.3,33.2,74.4,42.2,114.6c8.9,39.9,11.2,80.1,9.1,120.7c-1.1,22.5-3.7,44.8-8.3,67.3H331
		V834.3h400.4c-3.6-8.9-6.4-16.6-9.8-24c-23.9-52.5-62-92.6-110.5-122.7c-26.1-16.2-55.5-25.6-85.7-31.2c-17.5-3.3-35.5-6-53.3-5.9
		c-35.7,0.2-70.6,6.4-103.8,20.8c-44.1,19.1-79.5,49.1-109.9,85.6c-4,4.8-7.8,9.9-11.7,14.9c-9.5,12.1-16.2,25.6-21.8,40
		c-7.8,20.1-16.3,39.9-20,61.4c-9.6,56.4-5.8,111,19,163.4c10.6,22.3,22.4,43.8,37.5,63.4c24.2,31.5,55.4,54.3,90.4,72.1
		c29.9,15.2,61.6,24.6,95,27.8c63.4,6,122-8.5,175.3-43.4c16.1-10.5,31-22.7,47.2-34.8l127.6,130
		C777.2,1271,756.3,1287.9,733.9,1303.9L733.9,1303.9z"/>
	<path class="st0" d="M2796.4,1180.4c-19.2,27.7-39.7,53.4-63.2,76.5c-29.1,28.6-62.2,51.9-97.7,71.8
		c-41.5,23.2-85.6,39.3-132.4,48.1c-25.2,4.7-50.5,7.4-76.2,7.5c-31.6,0.2-63.1-0.7-94.4-6.2c-58.3-10.2-112.4-31.1-162.3-63
		c-37.5-24-70.7-53.2-100.8-85.8c-22.1-24-39.7-51.6-55.7-80c-26-46.1-43.9-95.1-52.4-147.4c-3.2-19.7-6-39.4-5.5-59.3
		c0.5-21.3,0.4-42.6,2.1-63.7c3.7-47.1,16.7-91.9,35.6-135c17.7-40.3,39.8-77.9,68.9-111.4c57-66,124.9-115.8,208.4-142.9
		c32.7-10.6,66.1-17.1,100.3-20.2c27.6-2.5,55.2-2.9,82.7-0.9c40.2,2.9,79.5,11.3,117.4,25.3c56.8,20.9,107.4,52.3,152.1,92.9
		c57.3,52.2,98.9,115,125.1,188c11,30.7,18.1,62.2,22.2,94.5c3.5,28.1,4.6,56.3,3,84.5c-3.9,66.5-21,129.4-53.6,187.8
		C2812.6,1154.4,2804.5,1167,2796.4,1180.4 M2514.8,670.1c-37.7-14.2-76.5-20.7-116.8-18.9c-46.3,2.1-88.6,15.4-127.4,40.6
		c-20.2,13.1-37.8,29.2-54.6,46.4c-23,23.6-41.2,50.2-54,80.6c-11.2,26.8-18.9,54.2-20.7,83.5c-1.7,27-1,53.7,3.9,80.1
		c6.3,34.1,20.2,65.2,40.2,93.5c21.6,30.5,45.1,59.3,77.3,79.5c55.2,34.4,114.9,51.1,180.2,44.6c60.3-6,112.3-30.3,156.7-71.3
		c28.9-26.7,51.7-57.9,67.8-93.9c15.3-34.4,23.9-70.2,24.1-107.8c0.1-14.5-1.6-29.1-3.6-43.5c-4-28.8-13.2-56-27.1-81.7
		c-16.2-30.1-37.6-56.1-62.6-79.4C2574.1,699.6,2547.4,681.8,2514.8,670.1L2514.8,670.1z"/>
	<path class="st0" d="M3462.3,979.8c-28.9-59.2-57.5-117.7-86.1-176.3c-11.4-23.3-22.6-46.6-34-69.9
		c-26.5-54.4-53.1-108.7-79.6-163.1c-15.9-32.6-31.6-65.2-47.3-97.8c-1-2-1.8-4.1-3.1-6.9h209.5l240.6,494.6l242.9-494.4h209.4
		c-4.1,8.8-7.8,17.2-11.8,25.4c-22.9,46.6-45.9,93-68.8,139.6c-25.5,51.9-50.9,103.9-76.4,155.8c-16.1,32.8-32.2,65.7-48.3,98.5
		c-25.6,52.2-51.3,104.4-76.9,156.7c-15.8,32.2-31.5,64.5-47.3,96.8c-25.9,52.8-51.8,105.7-77.7,158.5
		c-13.2,26.9-26.3,53.8-39.5,80.6c-1.4,2.8-3.3,5.3-5.7,9.3c-2.4-4-4-6.3-5.3-8.9c-32.7-66.6-65.3-133.1-97.8-199.7
		c-19.3-39.4-38.4-78.9-57.7-118.3C3488.6,1033.6,3475.6,1007.1,3462.3,979.8L3462.3,979.8z"/>
	<path class="st0" d="M1192.1,785.9c-74.3-36.5-147.9-72.8-222-109.3V467.4c8.5,3.9,16.3,7.3,23.9,11
		c46.2,22.7,92.4,45.5,138.6,68.2c52.5,25.8,105,51.6,157.5,77.3c33.1,16.2,66.3,32.4,99.4,48.6c51.9,25.5,103.8,50.9,155.7,76.4
		c32.5,15.9,65.1,31.8,97.6,47.8c52.5,25.7,105,51.5,157.5,77.3c27.1,13.3,54.3,26.5,81.5,39.8c2.9,1.4,5.6,3,10.1,5.5
		c-4,2.5-6.2,4.2-8.7,5.4c-39.7,19.4-79.4,38.7-119.1,58.1c-71.9,35.1-143.9,70.3-215.8,105.4c-40,19.5-80,39-120,58.5
		c-57,27.8-114,55.7-171,83.5c-37.9,18.5-75.8,37.1-113.8,55.5c-56.5,27.4-113,54.8-169.5,82.2c-0.9,0.4-1.8,0.6-3.5,1.2v-209.3
		l493.8-240.3c-10.5-5.3-19.2-9.7-28-14c-35.2-17.3-70.4-34.6-105.6-51.8C1284.4,831.1,1238.3,808.5,1192.1,785.9L1192.1,785.9z"/>
	<path d="M3134.3,802v581.5h-182.2V8.6h182.2V802z"/>
	<path class="st1" d="M2449.1,2264.9c15.3-23.5,22.4-48.8,23.1-75.9c0.6-22.3,0.1-44.7,0.1-67v-9.5
		c-56.1,38.3-115.7,48.3-179.3,29.7c-44.1-12.9-79.2-40.2-104.6-77.5c-49.6-72.5-50.3-171.7,15-246.4c33.7-38.5,77-60.9,128.2-66
		c50.7-5,97.4,7.1,140.4,37.6v-38.3c27.2-0.6,53.7-0.2,80.9-0.2c0.3,2.9,0.7,5.4,0.7,7.9c0,141.7,0.4,283.3-0.2,425
		c-0.2,43.4-10.2,84.8-34.3,122c-30.7,47.3-74.4,73.8-129.7,81.8c-11.8,1.7-23.8,2-36.4,2.9v-80.4
		C2391.4,2309.9,2425.3,2298.7,2449.1,2264.9 M2237.7,1981.2c1,3.5,1.8,7.1,3.1,10.5c6.9,17.6,17.7,32.5,31.3,45.7
		c28.4,27.4,62.4,36.9,100.8,31.5c29.6-4.2,53.2-19.6,72-42.6c24.3-29.6,32.4-63.4,25-100.7c-4.9-24.6-18.1-44.7-36.2-61.7
		c-26.9-25.3-59.2-35.2-95.3-31.3c-29.9,3.3-54.3,17.7-74.3,40.4C2236.7,1904.1,2229.2,1939.8,2237.7,1981.2z"/>
	<path class="st0" d="M2736.3,1836.4c22.4-32.3,51.3-56,87.1-70.1c65.3-25.6,128.1-19.2,187.6,18.1c2.4,1.5,4.9,3,8.7,5.2v-38h80.1
		c0.2,2.7,0.5,5.2,0.5,7.8c0,141,0.2,281.9-0.1,422.9c-0.1,35.2-6,69.5-21.7,101.4c-25.4,51.8-65,86.7-121.9,100.3
		c-18.4,4.4-37,7.3-56.5,5.7v-78.3c11.8-1.8,23.4-2.8,34.6-5.4c38.4-8.7,62.5-33.4,75.6-69.7c6.9-19.2,9.7-39.1,9.5-59.5
		c-0.3-20.9-0.1-41.8-0.1-64.6c-55.5,38.1-114.9,48.5-178.2,30.4c-43.5-12.4-77.7-39.2-104-75.2
		C2690.3,2003.1,2685,1908,2736.3,1836.4 M2917.8,2069.3c30.4-4.4,54.8-19.3,74-43c25-30.8,33.7-65.7,24.2-104.4
		c-5.9-24.3-19.6-44.3-38.1-60.7c-26.7-23.4-58.3-32.8-93.4-28.5c-30.3,3.7-54.7,18.6-74.8,41.6c-25.4,28.9-32.3,62.8-26.8,99.4
		c4.6,30.7,22.8,54.3,46.8,72.9C2854.9,2066.3,2884.2,2073.2,2917.8,2069.3L2917.8,2069.3z"/>
	<path class="st0" d="M4816.4,1944.5c0.5-4.8,1.2-8.8,1.2-12.7c0.1-56,0.1-112,0.1-168v-11.2h80.1c0.2,2.1,0.6,4.3,0.6,6.5
		c0,145,0.1,290,0,435c0,42.8-13.7,81.7-36.9,117.1c-26.5,40.3-64.7,64.1-111.3,74.8c-14.9,3.4-30,5.2-45.9,3.8v-79.1
		c6.3-0.5,12.5-0.6,18.7-1.5c39.7-5.5,66.9-27.5,82.9-63.7c8-18.1,11.7-37.3,11.9-57.1c0.2-24.3,0-48.5,0-74.1
		c-3,1.8-5.2,2.9-7.2,4.3c-26.5,18.5-55.9,28.7-88,31.6c-27.7,2.5-55,1.4-82-6c-40.2-10.9-71.6-34.2-95.5-68
		c-24.1-34.1-38.2-72.1-43-113.4c-2.2-19.1-3.2-38.4-3.4-57.6c-0.5-47.3-0.2-94.7-0.2-142v-10.6h80v10.5c0,48.3-0.5,96.7,0.2,145
		c0.3,19.5,1,39.1,5.3,58.3c6.1,27.1,17.1,51.5,35.3,72.7c14.8,17.3,34.2,25.9,56,29.9c18.5,3.5,37.1,3,55.4-1.6
		c25.3-6.3,45.2-20.8,59.1-42.8C4804.9,2000.6,4813,1973.7,4816.4,1944.5L4816.4,1944.5z"/>
	<path class="st1" d="M1255.7,1738v52.3c3.2-1.8,5.7-3.1,8-4.6c28.2-18.6,59.1-29.4,92.9-32.6c45-4.3,86.7,4.6,124.7,29.1
		c50,32.2,81.3,77.3,91,136.5c1.4,8.5,2,17.1,2,25.7c0.2,65,0.1,130,0.1,195v11.3h-80v-11.3c0-62.7-0.1-125.3,0.1-188
		c0.1-37.1-15.2-66.5-42.9-90.4c-21.3-18.3-46-27.9-73.6-28.8c-29.7-1-56.2,8.8-78.5,28.7c-17.3,15.5-31.5,33.3-37.9,56.2
		c-3.7,13.2-5.7,26.5-5.7,40.2c0,60.7,0,121.3,0,182v11.3H1176v-597.9h79.6L1255.7,1738L1255.7,1738z"/>
	<path class="st2" d="M3532.3,1862v288.6h-79.6v-36.9c-6.3,3.8-11.3,6.7-16.3,9.7c-25,15.2-52.1,25.3-81.3,27.6
		c-54.4,4.4-104.1-7.6-147.2-43.1c-43.7-36.1-69.1-82.1-73.8-138.4c-5.2-61.7,14.1-115,58.4-159c32.8-32.6,71.9-51.8,117.7-57.1
		c48.8-5.7,93.6,5.7,134.5,32.6c1.7,1.1,3.3,2.2,5,3.3c0.2,0.2,0.6,0.2,2.2,0.7c0.9-12.3,0-24.3,0.6-37.1h79.8L3532.3,1862
		 M3264.6,2048.5c38.5,26.8,79.2,30.9,121.3,10.2c27.5-13.5,47.2-35.2,58.5-63.9c11.7-29.8,11.1-59.7-1.2-89.1
		c-8.4-20.1-22.2-36.1-39.6-49c-28.7-21.4-60.6-29-95.7-21.5c-26.6,5.7-48.3,19.9-65.5,40.7c-22.7,27.5-32.7,58.8-27.2,94.4
		C3220.1,2003.1,3237.4,2028.1,3264.6,2048.5L3264.6,2048.5z"/>
	<path class="st2" d="M3898.3,1878.4c-15.2,18.6-22.1,39.6-24.8,62.5c-3.2,27.7,4.4,52.6,18.8,75.6c19.3,30.9,48.1,48.1,83.8,53.3
		c34.9,5.2,65.5-5.8,92.7-27.6c2.3-1.8,4.6-3.6,6-4.8l56.9,55.3c-54.8,60.3-158.2,79.3-238.3,33.4
		c-94.9-54.3-125.4-166.5-85.2-255.1c46.8-103.3,155.9-140.9,249.5-108.2c99,34.6,150.2,137.6,129,228.7h-257.9v-78.2
		c0.1-0.1,0.3-0.4,0.6-0.6c0.2-0.2,0.5-0.4,0.8-0.5c0.3-0.1,0.6-0.2,1-0.2c56.6,0,113.3,0,170.6,0c-0.1-2,0.2-3.6-0.3-4.9
		c-19.2-42.8-51.3-68.5-98.5-73.9c-37.1-4.2-68.5,7.7-94.5,34.4C3905.2,1871.1,3901.9,1874.5,3898.3,1878.4L3898.3,1878.4z"/>
	<path class="st1" d="M887.9,2067.9c-19.1,26.3-42.2,46.8-70.5,61.4c-21.8,11.3-44.6,18.4-69,20.9c-31.2,3.1-61.6,0.6-91.3-10
		c-24.5-8.7-46-22.2-65.3-39.3c-27.5-24.4-47-54.4-57.5-89.4c-16.5-54.7-11.6-107.8,17-157.7c27.5-47.9,67.6-81.4,121.4-95
		c69.8-17.6,133.3-3.4,187.2,45.5c36.5,33.1,58.2,74.5,64,123.7C929.9,1979,918,2025.5,887.9,2067.9 M842.4,1926.9
		c-5.5-26.4-19.5-47.6-39.7-65.1c-30.2-26.2-65.2-34.3-103.9-26.5c-48.6,9.7-93.8,60.9-92.7,117.4c0.8,40.2,18.4,71.3,48.6,94.9
		c24.2,18.9,52.9,25.7,84.4,22.8C803.7,2064.5,857.9,1995.1,842.4,1926.9L842.4,1926.9z"/>
	<path class="st1" d="M1941.6,1833.8c-18.5-2.6-36-1.7-53.3,2c-37.1,7.9-61.9,30.4-76.2,65c-7.2,17.4-10.5,35.5-10.5,54.4
		c0.1,61.3,0.1,122.7,0.1,184v11.5h-79.5v-398.1h79.2v32.1c1.2,0.3,2,0.7,2.3,0.5c29.2-19.1,61.3-29.5,96.2-32.2
		c33.9-2.6,67,0.2,99.1,11.7c39.5,14.1,69,40.4,90.8,75.8c21.1,34.3,31.1,71.4,30.8,111.7c-0.5,62.3-0.1,124.7-0.1,187v11.4h-80
		v-11.2c0-62.7,0-125.3,0-188c0-29.9-9-56.8-27.5-80.4c-15-19.1-35.2-29.8-58.6-35.2C1950.4,1835.1,1946.4,1834.6,1941.6,1833.8
		L1941.6,1833.8z"/>
	<path class="st1" d="M162.5,1844.2c-39.8,21.7-63.5,54.2-67.9,98.8c-3,30.6,6,58.6,26,82.4c18.7,22.3,41.7,38.1,70.8,43.5
		c38.9,7.2,73.1-2.5,102.1-29.4c7.3-6.7,13.7-14.3,21.4-22.3l63.4,47.1c-37.5,58.2-112.4,99.3-199.5,84.7
		c-89.8-15.1-157.4-91-164.5-180.8c-7.9-100.6,57-182.5,139.9-207.1c94.9-28.1,176.8,10,224.5,78.3l-65,48.2
		c-20.3-28.7-45.9-47.5-79.8-53.3C209.4,1830,185.7,1832.7,162.5,1844.2z"/>
	<path class="st3" d="M1079.7,1982v168.6h-80.8v-318.2h-67.9v-80.2h67.3v-170.7c15.4-7.5,30.2-14.8,45.1-22c2.1-1,4.4-1.7,6.3-3
		c8.9-6,18.7-5.9,29.7-4.5v200.2h67.8v79.5h-67.5L1079.7,1982L1079.7,1982z"/>
	<path class="st1" d="M3679.7,1686c0-24,0.1-47-0.1-69.9c0-5.5,1-10.3,3.5-15.3c8.1-16,15.9-32.1,23.8-48.3h52.2v598.2h-79.5V1686z"
		/>
	<path d="M3646.3,2116v34.6h-80.2v-598h51.7c9,18.3,18.4,37,27.3,55.9c1.6,3.4,1.3,7.8,1.3,11.7
		C3646.3,1785.2,3646.3,1950.1,3646.3,2116z"/>
	<path class="st0" d="M4335.6,1779.7c41.1-20.4,84.2-27.4,129.4-27.6v79.2c-14.8,1.6-29.6,2.7-44.2,4.9c-27.4,4.3-52.4,14-73.6,32.6
		c-21,18.5-33.3,41.8-39,68.8c-1.4,6.7-1.8,13.8-1.8,20.7c-0.1,60.3-0.1,120.6-0.1,180.9v11.5h-80.3v-398.1h79.7v44
		C4316.3,1790.6,4325.6,1785.3,4335.6,1779.7L4335.6,1779.7z"/>
	<path d="M411.7,2110v-505.6l80.2,3.8v542.6h-80.2V2110z"/>
	<path class="st0" d="M1607.7,2038v-285.3h80.2v398.2h-80.2V2038z"/>
	<path class="st3" d="M1666.7,1721.1c-30.2,13.2-55.9-4.7-58.7-32c-2.5-24.1,12.4-38.6,30.6-42.6c24.7-5.4,39.4,5.4,46.9,25
		C1692.9,1691.1,1685.6,1712.3,1666.7,1721.1z"/>
	<path class="st4" d="M2515.6,670.3c31.8,11.5,58.5,29.3,82.7,51.9c25,23.4,46.3,49.3,62.6,79.4c13.8,25.7,23.1,52.9,27.1,81.7
		c2,14.4,3.7,29,3.6,43.5c-0.2,37.6-8.7,73.5-24.1,107.8c-16.1,36.1-38.8,67.2-67.8,93.9c-44.4,41-96.5,65.3-156.7,71.3
		c-65.3,6.5-125-10.2-180.2-44.6c-32.3-20.1-55.7-48.9-77.3-79.5c-20-28.3-33.9-59.4-40.2-93.5c-4.9-26.5-5.5-53.2-3.9-80.1
		c1.8-29.3,9.5-56.7,20.7-83.5c12.8-30.4,31-57,54-80.6c16.7-17.2,34.4-33.2,54.6-46.4c38.8-25.2,81.1-38.5,127.4-40.6
		C2438.4,649.4,2477.2,655.9,2515.6,670.3L2515.6,670.3z"/>
	<path class="st5" d="M2237.4,1980.5c-8.2-40.6-0.8-76.4,26.6-107.5c20-22.7,44.4-37.1,74.3-40.4c36.1-3.9,68.4,6,95.3,31.3
		c18.1,17,31.4,37.2,36.2,61.7c7.4,37.2-0.7,71-25,100.7c-18.9,23-42.4,38.4-72,42.6c-38.3,5.4-72.4-4.1-100.8-31.5
		c-13.6-13.1-24.4-28-31.3-45.7C2239.5,1988.3,2238.7,1984.8,2237.4,1980.5L2237.4,1980.5z"/>
	<path class="st5" d="M2916.9,2069.4c-32.7,3.8-62-3.1-87.3-22.7c-24-18.6-42.2-42.2-46.8-72.9c-5.5-36.6,1.4-70.5,26.8-99.4
		c20.1-22.9,44.5-37.9,74.8-41.6c35.1-4.2,66.7,5.1,93.4,28.5c18.6,16.3,32.2,36.3,38.1,60.7c9.4,38.7,0.8,73.6-24.2,104.4
		C2972.6,2050,2948.2,2064.9,2916.9,2069.4L2916.9,2069.4z"/>
	<path class="st5" d="M3264,2048.1c-26.6-20-43.9-45-48.9-77.7c-5.5-35.6,4.6-67,27.2-94.4c17.2-20.9,38.9-35,65.5-40.7
		c35.1-7.5,67,0.1,95.7,21.5c17.4,13,31.2,29,39.6,49c12.3,29.4,12.9,59.3,1.2,89.1c-11.3,28.7-31,50.4-58.5,63.9
		C3343.7,2079.4,3303,2075.3,3264,2048.1z"/>
	<path class="st5" d="M842.5,1927.7c15.4,67.4-38.8,136.7-103.5,142.7c-31.4,2.9-60.2-3.9-84.4-22.8c-30.3-23.6-47.9-54.7-48.6-94.9
		c-1.1-56.4,44.1-107.6,92.7-117.4c38.8-7.8,73.7,0.3,103.9,26.5C822.8,1879.3,836.8,1900.5,842.5,1927.7z"/>
</g>
</svg>
