<?xml version="1.0" encoding="utf-8"?>
<!-- Generator: Adobe Illustrator 25.4.1, SVG Export Plug-In . SVG Version: 6.00 Build 0)  -->
<svg version="1.1" id="Layer_1" xmlns="http://www.w3.org/2000/svg" xmlns:xlink="http://www.w3.org/1999/xlink" x="0px" y="0px"
	 viewBox="0 0 1000 7" style="enable-background:new 0 0 1000 7;" xml:space="preserve">
<style type="text/css">
	.st0{fill:#F3996D;}
</style>
<g>
	<path class="st0" d="M979.7,6.6c-3.2,0-5.6-2.6-5.7-2.7c0,0-2.2-2.4-4.9-2.4l0,0c-1.6,0-3.1,0.8-4.5,2.4c-1.6,1.8-3.4,2.7-5.3,2.7
		c-3.2,0-5.6-2.6-5.7-2.7c0,0-2.2-2.4-4.9-2.4l0,0c-1.6,0-3.1,0.8-4.5,2.4c-1.6,1.8-3.4,2.7-5.3,2.7c-3.2,0-5.6-2.6-5.7-2.7
		c0,0-2.2-2.4-4.9-2.4l0,0c-1.6,0-3.1,0.8-4.5,2.4c-1.6,1.8-3.4,2.7-5.3,2.7c-3.2,0-5.6-2.6-5.7-2.7c0,0-2.2-2.4-4.9-2.4l0,0
		c-1.6,0-3.1,0.8-4.5,2.4c-1.6,1.8-3.4,2.7-5.3,2.7c-3.2,0-5.6-2.6-5.7-2.7c0,0-2.2-2.4-4.9-2.4l0,0c-1.6,0-3.1,0.8-4.5,2.4
		c-1.6,1.8-3.4,2.7-5.3,2.7c-3.2,0-5.6-2.6-5.7-2.7c0,0-2.2-2.4-4.9-2.4l0,0c-1.6,0-3.1,0.8-4.5,2.4c-1.6,1.8-3.4,2.7-5.3,2.7
		c-3.2,0-5.6-2.6-5.7-2.7c0,0-2.2-2.4-4.9-2.4l0,0c-1.6,0-3.1,0.8-4.5,2.4c-1.6,1.8-3.4,2.7-5.3,2.7c-3.2,0-5.6-2.6-5.7-2.7
		c0,0-2.2-2.4-4.9-2.4l0,0c-1.6,0-3.1,0.8-4.5,2.4c-1.6,1.8-3.4,2.7-5.3,2.7c-3.2,0-5.6-2.6-5.7-2.7c0,0-2.2-2.4-4.9-2.4l0,0
		c-1.6,0-3.1,0.8-4.5,2.4c-1.6,1.8-3.4,2.7-5.3,2.7c-3.2,0-5.6-2.6-5.7-2.7c0,0-2.2-2.4-4.9-2.4l0,0c-1.6,0-3.1,0.8-4.5,2.4
		c-1.6,1.8-3.4,2.7-5.3,2.7c-3.2,0-5.6-2.6-5.7-2.7c0,0-2.2-2.4-4.9-2.4l0,0c-1.6,0-3.1,0.8-4.5,2.4c-1.6,1.8-3.4,2.7-5.3,2.7
		c-3.2,0-5.6-2.6-5.7-2.7c0,0-2.2-2.4-4.9-2.4l0,0c-1.6,0-3.1,0.8-4.5,2.4c-1.6,1.8-3.4,2.7-5.3,2.7c-3.2,0-5.6-2.6-5.7-2.7
		c0,0-2.2-2.4-4.9-2.4l0,0c-1.6,0-3.1,0.8-4.5,2.4c-1.6,1.8-3.4,2.7-5.3,2.7c-3.2,0-5.6-2.6-5.7-2.7c0,0-2.2-2.4-4.9-2.4l0,0
		c-1.6,0-3.1,0.8-4.5,2.4c-1.6,1.8-3.4,2.7-5.3,2.7c-3.2,0-5.6-2.6-5.7-2.7c0,0-2.2-2.4-4.9-2.4l0,0c-1.6,0-3.1,0.8-4.5,2.4
		c-1.6,1.8-3.4,2.7-5.3,2.7c-3.2,0-5.6-2.6-5.7-2.7c0,0-2.2-2.4-4.9-2.4l0,0c-1.6,0-3.1,0.8-4.5,2.4c-1.6,1.8-3.4,2.7-5.3,2.7
		c-3.2,0-5.6-2.6-5.7-2.7c0,0-2.2-2.4-4.9-2.4l0,0c-1.6,0-3.1,0.8-4.5,2.4c-1.6,1.8-3.4,2.7-5.3,2.7c-3.2,0-5.6-2.6-5.7-2.7
		c0,0-2.2-2.4-4.9-2.4l0,0c-1.6,0-3.1,0.8-4.5,2.4c-1.6,1.8-3.4,2.7-5.3,2.7c-3.2,0-5.6-2.6-5.7-2.7c0,0-2.2-2.4-4.9-2.4l0,0
		c-1.6,0-3.1,0.8-4.5,2.4c-1.6,1.8-3.4,2.7-5.3,2.7c-3.2,0-5.6-2.6-5.7-2.7c0,0-2.2-2.4-4.9-2.4l0,0c-1.6,0-3.1,0.8-4.5,2.4
		c-1.6,1.8-3.4,2.7-5.3,2.7c-3.2,0-5.6-2.6-5.7-2.7c0,0-2.2-2.4-4.9-2.4l0,0c-1.6,0-3.1,0.8-4.5,2.4c-1.6,1.8-3.4,2.7-5.3,2.7
		c-3.2,0-5.6-2.6-5.7-2.7c0,0-2.2-2.4-4.9-2.4l0,0c-1.6,0-3.1,0.8-4.5,2.4c-1.6,1.8-3.4,2.7-5.3,2.7c-3.2,0-5.6-2.6-5.7-2.7
		c0,0-2.2-2.4-4.9-2.4l0,0c-1.6,0-3.1,0.8-4.5,2.4c-1.6,1.8-3.4,2.7-5.3,2.7c-3.2,0-5.6-2.6-5.7-2.7c0,0-2.2-2.4-4.9-2.4l0,0
		c-1.6,0-3.1,0.8-4.5,2.4c-1.6,1.8-3.4,2.7-5.3,2.7c-3.2,0-5.6-2.6-5.7-2.7c0,0-2.2-2.4-4.9-2.4l0,0c-1.6,0-3.1,0.8-4.5,2.4
		c-1.6,1.8-3.4,2.7-5.3,2.7c-3.2,0-5.6-2.6-5.7-2.7c0,0-2.2-2.4-4.9-2.4l0,0c-1.6,0-3.1,0.8-4.5,2.4c-1.6,1.8-3.4,2.7-5.3,2.7
		c-3.2,0-5.6-2.6-5.7-2.7c0,0-2.2-2.4-4.9-2.4l0,0c-1.6,0-3.1,0.8-4.5,2.4c-1.6,1.8-3.4,2.7-5.3,2.7c-3.2,0-5.6-2.6-5.7-2.7
		c0,0-2.2-2.4-4.9-2.4l0,0c-1.6,0-3.1,0.8-4.5,2.4c-1.6,1.8-3.4,2.7-5.3,2.7c-3.2,0-5.6-2.6-5.7-2.7c0,0-2.2-2.4-4.9-2.4l0,0
		c-1.6,0-3.1,0.8-4.5,2.4c-1.6,1.8-3.4,2.7-5.3,2.7c-3.2,0-5.6-2.6-5.7-2.7c0,0-2.2-2.4-4.9-2.4l0,0c-1.6,0-3.1,0.8-4.5,2.4
		c-1.6,1.8-3.4,2.7-5.3,2.7c-3.2,0-5.6-2.6-5.7-2.7c0,0-2.2-2.4-4.9-2.4l0,0c-1.6,0-3.1,0.8-4.5,2.4c-1.6,1.8-3.4,2.7-5.3,2.7
		c-3.2,0-5.6-2.6-5.7-2.7c0,0-2.2-2.4-4.9-2.4l0,0c-1.6,0-3.1,0.8-4.5,2.4c-1.6,1.8-3.4,2.7-5.3,2.7c-3.2,0-5.6-2.6-5.7-2.7
		c0,0-2.2-2.4-4.9-2.4l0,0c-1.6,0-3.1,0.8-4.5,2.4c-1.6,1.8-3.4,2.7-5.3,2.7c-3.2,0-5.6-2.6-5.7-2.7c0,0-2.2-2.4-4.9-2.4l0,0
		c-1.6,0-3.1,0.8-4.5,2.4c-1.6,1.8-3.4,2.7-5.3,2.7c-3.2,0-5.6-2.6-5.7-2.7c0,0-2.2-2.4-4.9-2.4l0,0c-1.6,0-3.1,0.8-4.5,2.4
		c-1.6,1.8-3.4,2.7-5.3,2.7c-3.2,0-5.6-2.6-5.7-2.7c0,0-2.2-2.4-4.9-2.4l0,0c-1.6,0-3.1,0.8-4.5,2.4c-1.6,1.8-3.4,2.7-5.3,2.7
		c-3.2,0-5.6-2.6-5.7-2.7c0,0-2.2-2.4-4.9-2.4l0,0c-1.6,0-3.1,0.8-4.5,2.4c-1.6,1.8-3.4,2.7-5.3,2.7c-3.2,0-5.6-2.6-5.7-2.7
		c0,0-2.2-2.4-4.9-2.4l0,0c-1.6,0-3.1,0.8-4.5,2.4c-1.6,1.8-3.4,2.7-5.3,2.7c-3.2,0-5.6-2.6-5.7-2.7c0,0-2.2-2.4-4.9-2.4l0,0
		c-1.6,0-3.1,0.8-4.5,2.4c-1.6,1.8-3.4,2.7-5.3,2.7c-3.2,0-5.6-2.6-5.7-2.7c0,0-2.2-2.4-4.9-2.4l0,0c-1.6,0-3.1,0.8-4.5,2.4
		c-1.6,1.8-3.4,2.7-5.3,2.7c-3.2,0-5.6-2.6-5.7-2.7c0,0-2.2-2.4-4.9-2.4l0,0c-1.6,0-3.1,0.8-4.5,2.4c-1.6,1.8-3.4,2.7-5.3,2.7
		c-3.2,0-5.6-2.6-5.7-2.7c0,0-2.2-2.4-4.9-2.4l0,0c-1.6,0-3.1,0.8-4.5,2.4c-1.6,1.8-3.4,2.7-5.3,2.7c-3.2,0-5.6-2.6-5.7-2.7
		c0,0-2.2-2.4-4.9-2.4l0,0c-1.6,0-3.1,0.8-4.5,2.4c-1.6,1.8-3.4,2.7-5.3,2.7c-3.2,0-5.6-2.6-5.7-2.7c0,0-2.2-2.4-4.9-2.4l0,0
		c-1.6,0-3.1,0.8-4.5,2.4c-1.6,1.8-3.3,2.7-5.2,2.7c-3.2,0-5.6-2.6-5.7-2.7c0,0-2.2-2.4-4.9-2.4l0,0c-1.6,0-3.1,0.8-4.5,2.4
		c-1.6,1.8-3.4,2.7-5.3,2.7c-3.2,0-5.6-2.6-5.7-2.7c0,0-2.2-2.4-4.9-2.4l0,0c-1.6,0-3.1,0.8-4.5,2.4c-1.6,1.8-3.4,2.7-5.3,2.7
		c-3.2,0-5.6-2.6-5.7-2.7c0,0-2.2-2.4-4.9-2.4l0,0c-1.6,0-3.1,0.8-4.5,2.4c-1.6,1.8-3.4,2.7-5.3,2.7c-3.2,0-5.6-2.6-5.7-2.7
		c0,0-2.2-2.4-4.9-2.4l0,0c-1.6,0-3.1,0.8-4.5,2.4C4.2,5.8,2.4,6.7,0.4,6.6v-1c1.7,0.1,3.2-0.7,4.7-2.4c1.6-1.8,3.4-2.7,5.3-2.7
		c3.2,0,5.6,2.6,5.7,2.7c0,0,2.2,2.4,4.9,2.4l0,0c1.6,0,3.1-0.8,4.5-2.4c1.6-1.8,3.4-2.7,5.3-2.7c3.2,0,5.6,2.6,5.7,2.7
		c0,0,2.2,2.4,4.9,2.4l0,0c1.6,0,3.1-0.8,4.5-2.4c1.6-1.8,3.4-2.7,5.3-2.7c3.2,0,5.6,2.6,5.7,2.7c0,0,2.2,2.4,4.9,2.4l0,0
		c1.6,0,3.1-0.8,4.5-2.4c1.6-1.8,3.4-2.7,5.3-2.7c3.2,0,5.6,2.6,5.7,2.7c0,0,2.2,2.4,4.9,2.4l0,0c1.6,0,3.1-0.8,4.5-2.4
		c1.6-1.8,3.4-2.7,5.3-2.7c3.2,0,5.6,2.6,5.7,2.7c0,0,2.2,2.4,4.9,2.4l0,0c1.6,0,3.1-0.8,4.5-2.4c1.6-1.8,3.4-2.7,5.3-2.7
		c3.2,0,5.6,2.6,5.7,2.7c0,0,2.2,2.4,4.9,2.4l0,0c1.6,0,3.1-0.8,4.5-2.4c1.6-1.8,3.4-2.7,5.3-2.7c3.2,0,5.6,2.6,5.7,2.7
		c0,0,2.2,2.4,4.9,2.4l0,0c1.6,0,3.1-0.8,4.5-2.4c1.6-1.8,3.4-2.7,5.3-2.7c3.2,0,5.6,2.6,5.7,2.7c0,0,2.2,2.4,4.9,2.4l0,0
		c1.6,0,3.1-0.8,4.5-2.4c1.6-1.8,3.4-2.7,5.3-2.7c3.2,0,5.6,2.6,5.7,2.7c0,0,2.2,2.4,4.9,2.4l0,0c1.6,0,3.1-0.8,4.5-2.4
		c1.6-1.8,3.4-2.7,5.3-2.7c3.2,0,5.6,2.6,5.7,2.7c0,0,2.2,2.4,4.9,2.4l0,0c1.6,0,3.1-0.8,4.5-2.4c1.6-1.8,3.4-2.7,5.3-2.7
		c3.2,0,5.6,2.6,5.7,2.7c0,0,2.2,2.4,4.9,2.4l0,0c1.6,0,3.1-0.8,4.5-2.4c1.6-1.8,3.4-2.7,5.3-2.7c3.2,0,5.6,2.6,5.7,2.7
		c0,0,2.2,2.4,4.9,2.4l0,0c1.6,0,3.1-0.8,4.5-2.4c1.6-1.8,3.4-2.7,5.3-2.7c3.2,0,5.6,2.6,5.7,2.7c0,0,2.2,2.4,4.9,2.4l0,0
		c1.6,0,3.1-0.8,4.5-2.4c1.6-1.8,3.4-2.7,5.3-2.7c3.2,0,5.6,2.6,5.7,2.7c0,0,2.2,2.4,4.9,2.4l0,0c1.6,0,3.1-0.8,4.5-2.4
		c1.6-1.8,3.4-2.7,5.3-2.7c3.2,0,5.6,2.6,5.7,2.7c0,0,2.2,2.4,4.9,2.4l0,0c1.6,0,3.1-0.8,4.5-2.4c1.6-1.8,3.4-2.7,5.3-2.7
		c3.2,0,5.6,2.6,5.7,2.7c0,0,2.2,2.4,4.9,2.4l0,0c1.6,0,3.1-0.8,4.5-2.4c1.6-1.8,3.4-2.7,5.3-2.7c3.2,0,5.6,2.6,5.7,2.7
		c0,0,2.2,2.4,4.9,2.4l0,0c1.6,0,3.1-0.8,4.5-2.4c1.6-1.8,3.4-2.7,5.3-2.7c3.2,0,5.6,2.6,5.7,2.7c0,0,2.2,2.4,4.9,2.4l0,0
		c1.6,0,3.1-0.8,4.5-2.4c1.6-1.8,3.4-2.7,5.3-2.7c3.2,0,5.6,2.6,5.7,2.7c0,0,2.2,2.4,4.9,2.4l0,0c1.6,0,3.1-0.8,4.5-2.4
		c1.6-1.8,3.4-2.7,5.3-2.7c3.2,0,5.6,2.6,5.7,2.7c0,0,2.2,2.4,4.9,2.4l0,0c1.6,0,3.1-0.8,4.5-2.4c1.6-1.8,3.4-2.7,5.3-2.7
		c3.2,0,5.6,2.6,5.7,2.7c0,0,2.2,2.4,4.9,2.4l0,0c1.6,0,3.1-0.8,4.5-2.4c1.6-1.8,3.4-2.7,5.3-2.7c3.2,0,5.6,2.6,5.7,2.7
		c0,0,2.2,2.4,4.9,2.4l0,0c1.6,0,3.1-0.8,4.5-2.4c1.6-1.8,3.4-2.7,5.3-2.7c3.2,0,5.6,2.6,5.7,2.7c0,0,2.2,2.4,4.9,2.4l0,0
		c1.6,0,3.1-0.8,4.5-2.4c1.6-1.8,3.4-2.7,5.3-2.7c3.2,0,5.6,2.6,5.7,2.7c0,0,2.2,2.4,4.9,2.4l0,0c1.6,0,3.1-0.8,4.5-2.4
		c1.6-1.8,3.4-2.7,5.3-2.7c3.2,0,5.6,2.6,5.7,2.7c0,0,2.2,2.4,4.9,2.4l0,0c1.6,0,3.1-0.8,4.5-2.4c1.6-1.8,3.4-2.7,5.3-2.7
		c3.2,0,5.6,2.6,5.7,2.7c0,0,2.2,2.4,4.9,2.4l0,0c1.6,0,3.1-0.8,4.5-2.4c1.6-1.8,3.4-2.7,5.3-2.7c3.2,0,5.6,2.6,5.7,2.7
		c0,0,2.2,2.4,4.9,2.4l0,0c1.6,0,3.1-0.8,4.5-2.4c1.6-1.8,3.4-2.7,5.3-2.7c3.2,0,5.6,2.6,5.7,2.7c0,0,2.2,2.4,4.9,2.4l0,0
		c1.6,0,3.1-0.8,4.5-2.4c1.6-1.8,3.4-2.7,5.3-2.7c3.2,0,5.6,2.6,5.7,2.7c0,0,2.2,2.4,4.9,2.4l0,0c1.6,0,3.1-0.8,4.5-2.4
		c1.6-1.8,3.4-2.7,5.3-2.7c3.2,0,5.6,2.6,5.7,2.7c0,0,2.2,2.4,4.9,2.4l0,0c1.6,0,3.1-0.8,4.5-2.4c1.6-1.8,3.4-2.7,5.3-2.7
		c3.2,0,5.6,2.6,5.7,2.7c0,0,2.2,2.4,4.9,2.4l0,0c1.6,0,3.1-0.8,4.5-2.4c1.6-1.8,3.4-2.7,5.3-2.7c3.2,0,5.6,2.6,5.7,2.7
		c0,0,2.2,2.4,4.9,2.4l0,0c1.6,0,3.1-0.8,4.5-2.4c1.6-1.8,3.4-2.7,5.3-2.7c3.2,0,5.6,2.6,5.7,2.7c0,0,2.2,2.4,4.9,2.4l0,0
		c1.6,0,3.1-0.8,4.5-2.4c1.6-1.8,3.4-2.7,5.3-2.7c3.2,0,5.6,2.6,5.7,2.7c0,0,2.2,2.4,4.9,2.4l0,0c1.6,0,3.1-0.8,4.5-2.4
		c1.6-1.8,3.4-2.7,5.3-2.7c3.2,0,5.6,2.6,5.7,2.7c0,0,2.2,2.4,4.9,2.4l0,0c1.6,0,3.1-0.8,4.5-2.4c1.6-1.8,3.4-2.7,5.3-2.7
		c3.2,0,5.6,2.6,5.7,2.7c0,0,2.2,2.4,4.9,2.4l0,0c1.6,0,3.1-0.8,4.5-2.4c1.6-1.8,3.4-2.7,5.3-2.7c3.2,0,5.6,2.6,5.7,2.7
		c0,0,2.2,2.4,4.9,2.4l0,0c1.6,0,3.1-0.8,4.5-2.4c1.6-1.8,3.4-2.7,5.3-2.7c3.2,0,5.6,2.6,5.7,2.7c0,0,2.2,2.4,4.9,2.4l0,0
		c1.6,0,3.1-0.8,4.5-2.4c1.6-1.8,3.4-2.7,5.3-2.7c3.2,0,5.6,2.6,5.7,2.7c0,0,2.2,2.4,4.9,2.4l0,0c1.6,0,3.1-0.8,4.5-2.4
		c1.6-1.8,3.4-2.7,5.3-2.7c3.2,0,5.6,2.6,5.7,2.7c0,0,2.2,2.4,4.9,2.4l0,0c1.6,0,3.1-0.8,4.5-2.4c1.6-1.8,3.4-2.7,5.3-2.7
		c3.2,0,5.6,2.6,5.7,2.7c0,0,2.2,2.4,4.9,2.4l0,0c1.6,0,3.1-0.8,4.5-2.4c1.6-1.8,3.4-2.7,5.3-2.7c3.2,0,5.6,2.6,5.7,2.7
		c0,0,2.2,2.4,4.9,2.4l0,0c1.6,0,3.1-0.8,4.5-2.4c1.6-1.8,3.4-2.7,5.3-2.7c3.2,0,5.6,2.6,5.7,2.7c0,0,2.2,2.4,4.9,2.4l0,0
		c1.6,0,3.1-0.8,4.5-2.4c1.6-1.8,3.4-2.7,5.3-2.7c3.2,0,5.6,2.6,5.7,2.7c0,0,2.2,2.4,4.9,2.4l0,0c1.6,0,3.1-0.8,4.5-2.4
		c1.6-1.8,3.4-2.7,5.3-2.7c3.2,0,5.6,2.6,5.7,2.7c0,0,2.2,2.4,4.9,2.4l0,0c1.6,0,3.1-0.8,4.5-2.4c1.6-1.8,3.4-2.7,5.3-2.7
		c3.2,0,5.6,2.6,5.7,2.7c0,0,2.2,2.4,4.9,2.4l0,0c1.6,0,3.1-0.8,4.5-2.4c1.6-1.8,3.4-2.7,5.3-2.7c3.2,0,5.6,2.6,5.7,2.7
		c0,0,2.2,2.4,4.9,2.4l0,0c1.6,0,3.1-0.8,4.5-2.4c1.6-1.8,3.4-2.7,5.3-2.7c3.2,0,5.6,2.6,5.7,2.7c0,0,2.2,2.4,4.9,2.4l0,0
		c1.6,0,3.1-0.8,4.5-2.4c1.6-1.8,3.4-2.7,5.3-2.7c3.2,0,5.6,2.6,5.7,2.7c0,0,2.1,2.3,4.7,2.4v1c-3.1-0.1-5.4-2.6-5.5-2.7
		c0,0-2.2-2.4-4.9-2.4l0,0c-1.6,0-3.1,0.8-4.5,2.4C983.4,5.6,981.6,6.6,979.7,6.6L979.7,6.6z"/>
</g>
</svg>
