<svg preserveAspectRatio="xMidYMid meet" data-bbox="0 0 322.518 227.117" viewBox="0 0 322.518 227.117" xmlns="http://www.w3.org/2000/svg" data-type="color" role="img" aria-label="PayPal icon">
    <g>
        <path fill="#253b80" d="M322.518 29.884v167.349c0 16.504-13.38 29.884-29.884 29.884H29.884C13.38 227.117 0 213.737 0 197.233V29.884C0 13.38 13.38 0 29.884 0h262.75c16.504 0 29.884 13.38 29.884 29.884z" data-color="1"></path>
        <path d="M77.444 99.919c-.96 6.3-5.778 6.3-10.436 6.3h-2.651l1.86-11.774a1.464 1.464 0 0 1 1.447-1.236h1.215c3.173 0 6.166 0 7.712 1.809.923 1.082 1.209 2.682.853 4.901zm-2.027-16.456h-17.57a2.442 2.442 0 0 0-2.413 2.061l-7.106 45.055a1.463 1.463 0 0 0 1.449 1.691h8.388a2.442 2.442 0 0 0 2.413-2.063l1.916-12.152a2.439 2.439 0 0 1 2.41-2.064h5.563c11.574 0 18.254-5.6 20-16.7.786-4.856.034-8.671-2.24-11.343-2.499-2.933-6.927-4.485-12.81-4.485z" fill="#ffffff" data-color="2"></path>
        <path d="M116.211 116.092a9.378 9.378 0 0 1-9.493 8.034 6.518 6.518 0 0 1-6.97-8.181 9.418 9.418 0 0 1 9.429-8.1 7.1 7.1 0 0 1 5.611 2.292 7.284 7.284 0 0 1 1.423 5.955zm11.728-16.376h-8.414a1.465 1.465 0 0 0-1.446 1.236l-.373 2.353-.588-.853c-1.822-2.644-5.884-3.528-9.938-3.528-9.3 0-17.239 7.043-18.786 16.921a15.881 15.881 0 0 0 3.135 12.926c2.564 3.021 6.233 4.28 10.6 4.28a16.1 16.1 0 0 0 11.646-4.817l-.375 2.338a1.463 1.463 0 0 0 1.444 1.695h7.579a2.44 2.44 0 0 0 2.412-2.063l4.548-28.8a1.459 1.459 0 0 0-1.444-1.688z" fill="#ffffff" data-color="2"></path>
        <path d="M172.751 99.716H164.3a2.448 2.448 0 0 0-2.022 1.071l-11.662 17.178-4.943-16.507a2.449 2.449 0 0 0-2.343-1.742h-8.309a1.465 1.465 0 0 0-1.39 1.937l9.314 27.331-8.756 12.36a1.464 1.464 0 0 0 1.195 2.313h8.445a2.437 2.437 0 0 0 2.006-1.049l28.122-40.593a1.463 1.463 0 0 0-1.206-2.299z" fill="#ffffff" data-color="2"></path>
        <path d="M202.772 99.919c-.958 6.3-5.776 6.3-10.436 6.3h-2.649l1.863-11.774a1.459 1.459 0 0 1 1.444-1.236h1.215c3.17 0 6.166 0 7.713 1.809.922 1.082 1.202 2.682.85 4.901zm-2.027-16.456h-17.573a2.441 2.441 0 0 0-2.41 2.061l-7.107 45.055a1.463 1.463 0 0 0 1.444 1.691h9.018a1.707 1.707 0 0 0 1.685-1.444l2.017-12.771a2.439 2.439 0 0 1 2.41-2.064h5.56c11.577 0 18.254-5.6 20-16.7.789-4.856.031-8.671-2.243-11.343-2.494-2.933-6.92-4.485-12.801-4.485z" fill="#ffffff" data-color="2"></path>
        <path d="M241.536 116.092a9.374 9.374 0 0 1-9.493 8.034 6.518 6.518 0 0 1-6.97-8.181 9.421 9.421 0 0 1 9.428-8.1 7.1 7.1 0 0 1 5.612 2.292 7.248 7.248 0 0 1 1.423 5.955zm11.728-16.376h-8.409a1.457 1.457 0 0 0-1.444 1.236l-.372 2.353-.591-.853c-1.822-2.644-5.881-3.528-9.935-3.528-9.3 0-17.237 7.043-18.783 16.921a15.89 15.89 0 0 0 3.131 12.926c2.57 3.021 6.233 4.28 10.6 4.28a16.1 16.1 0 0 0 11.646-4.817l-.375 2.338a1.465 1.465 0 0 0 1.449 1.695h7.577a2.44 2.44 0 0 0 2.41-2.063l4.55-28.8a1.467 1.467 0 0 0-1.454-1.688z" fill="#ffffff" data-color="2"></path>
        <path d="M263.184 84.7l-7.212 45.88a1.462 1.462 0 0 0 1.444 1.691h7.25a2.438 2.438 0 0 0 2.413-2.063l7.111-45.053a1.463 1.463 0 0 0-1.444-1.693h-8.118a1.466 1.466 0 0 0-1.444 1.238z" fill="#ffffff" data-color="2"></path>
    </g>
</svg>