<svg preserveAspectRatio="xMidYMid meet" data-bbox="0 0 322.518 227.117" viewBox="0 0 322.518 227.117" xmlns="http://www.w3.org/2000/svg" data-type="color" role="img" aria-label="Visa icon">
    <g>
        <path fill="#0066b2" d="M322.518 29.884v167.349c0 16.504-13.38 29.884-29.884 29.884H29.884C13.38 227.117 0 213.737 0 197.233V29.884C0 13.38 13.38 0 29.884 0h262.75c16.504 0 29.884 13.38 29.884 29.884z" data-color="1"></path>
        <path fill="#ffffff" d="M147.567 149.138H130.77l10.499-64.523h16.799l-10.501 64.523z" data-color="2"></path>
        <path d="M116.637 84.615l-16.015 44.378-1.895-9.556-5.651-29.011s-.683-5.811-7.969-5.811H58.634l-.311 1.092a62.74 62.74 0 0 1 17.571 7.378l14.6 56.053h17.5l26.726-64.523z" fill="#ffffff" data-color="2"></path>
        <path d="M248.766 149.138h15.424l-13.449-64.523h-13.505c-6.237 0-7.755 4.809-7.755 4.809l-25.051 59.714h17.508l3.5-9.583H246.8zm-18.484-22.824l8.826-24.146 4.966 24.146z" fill="#ffffff" data-color="2"></path>
        <path d="M205.743 100.132l2.4-13.858a48.5 48.5 0 0 0-15.109-2.813c-8.336 0-28.132 3.645-28.132 21.359 0 16.671 23.234 16.879 23.234 25.631s-20.839 7.189-27.716 1.667l-2.5 14.485s7.5 3.646 18.963 3.646 28.757-5.938 28.757-22.09c0-16.775-23.443-18.338-23.443-25.631s16.357-6.357 23.546-2.396z" fill="#ffffff" data-color="2"></path>
        <path d="M98.729 119.44l-5.653-29.014s-.683-5.811-7.969-5.811H58.634l-.311 1.092a65.117 65.117 0 0 1 24.934 12.518 50.327 50.327 0 0 1 15.472 21.215z" fill="#f9a533" data-color="3"></path>
    </g>
</svg>