<svg preserveAspectRatio="xMidYMid meet" data-bbox="0 0 322.518 227.117" viewBox="0 0 322.518 227.117" xmlns="http://www.w3.org/2000/svg" data-type="color" role="img" aria-label="Mastercard icon">
    <g>
        <path fill="#36495d" d="M322.518 29.884v167.349c0 16.504-13.38 29.884-29.884 29.884H29.884C13.38 227.117 0 213.737 0 197.233V29.884C0 13.38 13.38 0 29.884 0h262.75c16.504 0 29.884 13.38 29.884 29.884z" data-color="1"></path>
        <path fill="#f16522" d="M188.347 64.874v97.369h-54.184V64.874h54.184z" data-color="2"></path>
        <path d="M137.6 113.559a61.821 61.821 0 0 1 23.652-48.685 61.926 61.926 0 1 0 0 97.369 61.819 61.819 0 0 1-23.652-48.684" fill="#e41b24" data-color="3"></path>
        <path d="M261.448 113.555a61.919 61.919 0 0 1-100.187 48.684 61.938 61.938 0 0 0 0-97.369 61.923 61.923 0 0 1 100.187 48.685m-5.908 38.373v-1.993h.8v-.4h-2.04v.4h.8v1.993zm3.975 0v-2.4h-.629l-.72 1.653-.721-1.653h-.628v2.4h.44v-1.813l.676 1.565h.461l.676-1.569v1.817z" fill="#f89e1c" data-color="4"></path>
    </g>
</svg>