<svg preserveAspectRatio="xMidYMid meet" data-bbox="0 0 322.52 227.117" viewBox="0 0 322.52 227.117" xmlns="http://www.w3.org/2000/svg" data-type="color" role="img" aria-label=" American Express icon">
    <g>
        <defs>
            <mask maskUnits="userSpaceOnUse" height="131.976" width="322.299" y="53.839" x="0" id="4c2a9882-5f0e-439c-bfc1-0cbdc064c363_comp-kneju4vh">
                <path fill="#ffffff" d="M.001 53.842v131.971h322.298V53.842H.001z"></path>
            </mask>
            <mask maskUnits="userSpaceOnUse" height="37.972" width="258.949" y="138.679" x="63.57" id="ec0a2d6f-413c-40b9-8ee2-7b2209946a5b_comp-kneju4vh">
                <path fill="#ffffff" d="M322.52 176.652v-37.973H63.57v37.973h258.95z"></path>
            </mask>
        </defs>
        <path fill="#006fcf" d="M322.518 29.884v167.349c0 16.504-13.38 29.884-29.884 29.884H29.884C13.38 227.117 0 213.737 0 197.233V29.884C0 13.38 13.38 0 29.884 0h262.75c16.504 0 29.884 13.38 29.884 29.884z" data-color="1"></path>
        <g mask="url(#4c2a9882-5f0e-439c-bfc1-0cbdc064c363_comp-kneju4vh)">
            <path d="M282.812 110.143H307v-56.3h-25.817v9.005l-5.747-9.005h-22.51v11.382l-5.044-11.386H210.67a33.847 33.847 0 0 0-5.223.4 29.258 29.258 0 0 0-4.188.969 26.145 26.145 0 0 0-3.085 1.178 24.2 24.2 0 0 0-3.339 1.86v-4.4H73.39l-3.307 9.819-3.366-9.819H38.46v11.499l-5.1-11.506H10.308L0 77.923v32.22h16.327l3.038-8.081h5.749l3.094 8.081H153.83v-8.19l6.292 8.19h34.713v-4.095a23.092 23.092 0 0 0 2.774 1.529 25.352 25.352 0 0 0 2.9 1.131 27.89 27.89 0 0 0 3.673.917 33.182 33.182 0 0 0 5.893.518h20.774l3.037-8.081h5.75l3.09 8.081h34.825v-8.354zm39.485 72.2v-52.83H122.365l-5.1 7.214-5.041-7.214h-57.5v56.3h57.277l4.999-7.321 5.152 7.323H158v-12.147h-.378a34.583 34.583 0 0 0 12.1-2.139v14.286h25v-8.187l6.291 8.187H309.5a25.421 25.421 0 0 0 8.674-1.482 22.506 22.506 0 0 0 4.126-1.986z" fill="#f7f7f7" data-color="2"></path>
        </g>
        <g mask="url(#ec0a2d6f-413c-40b9-8ee2-7b2209946a5b_comp-kneju4vh)">
            <path d="M309.718 169.056h-19.473v7.6h19.2c8.195 0 13.075-4.992 13.075-12.1 0-6.781-4.393-10.738-11.769-10.738h-8.787a3.458 3.458 0 0 1-3.688-3.635 3.556 3.556 0 0 1 3.688-3.8h16.485l3.368-7.7h-19.586c-8.193 0-13.073 4.991-13.073 11.825 0 7 4.614 11.011 11.828 11.011h8.732a3.515 3.515 0 0 1 3.741 3.69 3.617 3.617 0 0 1-3.741 3.847zm-36.125 0h-19.47v7.6h19.2c8.192 0 13.075-4.992 13.075-12.1 0-6.781-4.393-10.738-11.772-10.738h-8.787a3.459 3.459 0 0 1-3.688-3.635 3.558 3.558 0 0 1 3.688-3.8h16.488l3.365-7.7h-19.586c-8.19 0-13.073 4.991-13.073 11.825 0 7 4.614 11.011 11.828 11.011h8.732a3.514 3.514 0 0 1 3.74 3.69 3.616 3.616 0 0 1-3.74 3.847zm-25-22.671v-7.7h-30.378v37.971h30.375V169h-21.263v-7.645H248.1v-7.6h-20.773v-7.375zm-50.879.052c3.254 0 4.991 2.115 4.991 4.722s-1.737 4.66-4.991 4.66h-10.689v-9.382zm-10.686 16.544h4.285l11.336 13.671h11.336l-12.636-14c6.455-1.195 10.3-5.858 10.3-11.933 0-7.106-5.044-12.042-13.125-12.042h-20.612v37.971h9.113zm-23.216-11.555a4.453 4.453 0 0 1-4.828 4.666h-10.9v-9.326h10.9c3.199 0 4.825 2.059 4.825 4.66zm-24.842-12.745v37.971h9.112v-12.534h11.444c8.3 0 13.451-5.422 13.451-12.745 0-7.537-5.041-12.692-13.126-12.692zm-13.4 37.971h11.39L121.717 157.5l15.135-18.823h-11.064l-9.332 12.042-9.274-12.042H95.791l15.188 18.984-15.135 18.991h11.066l9.329-12.206zm-31.624-30.267v-7.7H63.57v37.971h30.376V169h-21.26v-7.645h20.773v-7.6H72.686v-7.375z" fill="#006fcf" data-color="1"></path>
        </g>
        <path d="M270.174 78.249l-.108-3.146 1.9 3.146 14.534 22.727h10.636v-37.97h-8.9v21.968l.108 2.821-1.681-2.821-14.213-21.968h-11.169v37.97h8.893zm-36.339-1.084l2.765-7.106 2.762 7.106 3.369 8.407h-12.206zm15.076 23.811h10.249l-16.212-37.97h-11.992l-16.269 37.97h9.707l3.2-8.137h18.061zm-39.757 0h.489l3.741-8.081h-2.765c-6.239 0-9.927-3.905-9.927-10.63v-.542c0-6.023 3.308-10.523 9.818-10.523h9.871v-8.194h-10.629c-11.717 0-18.117 7.868-18.117 18.661v.651c0 11.282 6.565 18.606 17.519 18.658zm-32.382 0h9.113v-37.97h-9.113v37.97zm-19.147-30.211c3.254 0 4.991 2.115 4.991 4.719s-1.737 4.663-4.991 4.663h-10.686v-9.382zm-10.686 16.544h4.285l11.339 13.667H173.9l-12.639-14c6.455-1.192 10.307-5.858 10.307-11.931 0-7.106-5.047-12.044-13.128-12.044h-20.613v37.97h9.112zm-15.782-16.6v-7.7h-30.375v37.97h30.375V93.22h-21.263v-7.54h20.774v-7.592h-20.774v-7.379zM55.6 75.05l-.22-10.25 10.52 36.176h8.25l10.521-35.961L84.455 75v25.981H93.3V63.006H77.24l-7.214 26.9-7.268-26.9h-16v37.97H55.6zm-36.29 2.115l2.768-7.106 2.766 7.106 3.362 8.407H16zm15.08 23.811h10.252l-16.219-37.97H16.437L.163 100.976h9.71l3.2-8.137h18.062z" fill="#006fcf" data-color="1"></path>
    </g>
</svg>